<svg xmlns="http://www.w3.org/2000/svg" viewBox="0 0 748.2 125.5" style="enable-background:new 0 0 748.2 125.5" xml:space="preserve"><style>.st0{fill:#009fe3}</style><g id="Layer_2"><path d="M290.5 62.6c0 37.6-25.4 49.3-57.6 49.3h-32.5V13.4h32.5c32.2 0 57.6 11.7 57.6 49.2zM223.7 33v59.4h9.6c17.1 0 32.6-3.7 32.6-29.7 0-25.9-15.5-29.6-32.6-29.6h-9.6zM377.9 13.4v20.4h-52.3v17.3H375v20.5h-49.4v19.8h52.3v20.5h-75.5V13.4h75.5zM461.3 44.3c-2-6.8-9-13.3-21.6-13.3-14.3 0-25.4 10.6-25.4 31.4 0 20.8 10.3 32.2 25.8 32.2 10.7 0 21.9-4.1 21.9-16.6v-1.9h-23.8V57h47v54.9h-17.8l-.7-10.9c-6.4 8.6-16 12.6-30.2 12.6-29.1 0-46.9-19.8-46.9-51.3 0-31.1 20.4-50.5 50.3-50.5 21.9 0 39.5 11 44.1 32.5h-22.7zM502.1 111.9V13.4h23.2v98.5h-23.2zM565.4 74.8v37.1h-23.2V13.4h37.9c25.5 0 44.7 6 44.7 30.4 0 14.5-8 22.8-19.3 27.2l24.3 40.9h-27.3l-21.3-37.1h-15.8zm0-19.5h15.3c11 0 19.4-1.9 19.4-11.1 0-9.1-8.4-11.1-19.4-11.1h-15.3v22.2zM633 62.7c0-30.7 20.8-50.9 51.1-50.9 30.2 0 51.1 20.2 51.1 50.9s-20.9 50.9-51.1 50.9c-30.3.1-51.1-20.2-51.1-50.9zm77.6 0c0-20.9-12.1-31.8-26.5-31.8s-26.5 10.9-26.5 31.8 12.1 31.8 26.5 31.8 26.5-10.8 26.5-31.8z"/><path class="st0" d="M13 13.4h164.3v39.7H13zM13 72.2h164.3v39.7H13z"/></g></svg>